<?xml version="1.0" encoding="UTF-8" standalone="no"?>
<!-- Created with Inkscape (http://www.inkscape.org/) -->

<svg
   width="419.81177"
   height="105.16106"
   viewBox="0 0 419.81177 105.16106"
   version="1.1"
   id="svg5"
   inkscape:version="1.3 (0e150ed6c4, 2023-07-21)"
   sodipodi:docname="logo.svg"
   xmlns:inkscape="http://www.inkscape.org/namespaces/inkscape"
   xmlns:sodipodi="http://sodipodi.sourceforge.net/DTD/sodipodi-0.dtd"
   xmlns="http://www.w3.org/2000/svg"
   xmlns:svg="http://www.w3.org/2000/svg">
  <sodipodi:namedview
     id="namedview7"
     pagecolor="#c8c8c8"
     bordercolor="#666666"
     borderopacity="0"
     inkscape:showpageshadow="false"
     inkscape:pageopacity="0"
     inkscape:pagecheckerboard="0"
     inkscape:deskcolor="#969696"
     inkscape:document-units="px"
     showgrid="true"
     inkscape:lockguides="false"
     inkscape:zoom="1.4902276"
     inkscape:cx="362.69628"
     inkscape:cy="-79.518055"
     inkscape:window-width="1920"
     inkscape:window-height="1057"
     inkscape:window-x="-8"
     inkscape:window-y="-8"
     inkscape:window-maximized="1"
     inkscape:current-layer="layer1">
    <inkscape:grid
       type="xygrid"
       id="grid64"
       empspacing="10"
       dotted="false"
       color="#969696"
       opacity="0.14901961"
       empcolor="#646464"
       empopacity="0.30196078"
       originx="159.49629"
       originy="16.66561"
       spacingy="1"
       spacingx="1"
       units="px"
       visible="true" />
  </sodipodi:namedview>
  <defs
     id="defs2" />
  <g
     inkscape:label="Layer 1"
     inkscape:groupmode="layer"
     id="layer1"
     transform="translate(159.49629,16.66561)">
    <path
       style="fill:#ffffff;fill-opacity:1;stroke-width:2;stroke-linecap:round;stroke-linejoin:round;paint-order:stroke markers fill"
       d="m -122.49564,23.360185 c 5.22016,16.380592 10.32749,30.429908 14.65532,47.702838 l 4.51744,-0.0298 C -95.689773,43.670412 -88.8142,-1.713029 -75.55184,-1.755169 V -4.5364 h -22.924084 v 2.781231 c 11.044784,-0.04084 5.971004,6.010285 2.37301,20.758441 -2.410971,9.882562 -7.572356,29.705771 -9.958186,41.018591 -1.63425,-14.00331 -9.54144,-34.133935 -13.18027,-45.112476 -3.16439,-9.547129 -2.86871,-9.564562 -14.21063,-9.50078 l -0.16105,4.004678 c 5.03567,-0.150603 8.29401,7.091922 11.11741,13.9469 z"
       id="path8"
       sodipodi:nodetypes="cccccccscsccc" />
    <path
       style="fill:#ffffff;fill-opacity:1;stroke-width:2;stroke-linecap:round;stroke-linejoin:round;paint-order:stroke markers fill"
       d="m -111.33044,26.656452 c -5.49862,14.091991 -11.42244,27.824201 -14.11685,44.288991 l -4.86715,0.0421 C -137.59059,43.456215 -148.93201,0.95114 -159.49629,0.95114 v -2.781231 h 22.92408 V 0.95114 c -10.50843,-1.351925 -4.47879,6.542711 -1.59828,20.162493 1.69337,8.006675 8.65178,22.000168 11.03761,33.31299 3.6991,-11.727759 8.10761,-23.697672 11.78966,-34.661794 5.14496,-15.32029 0.46673,-14.115667 17.455396,-14.431143 l 0.16105,4.004678 c -5.035676,-0.150603 -10.780266,10.46311 -13.603666,17.318088 z"
       id="path8-9"
       sodipodi:nodetypes="cccccccscsccc" />
    <path
       style="fill:#ffffff;fill-opacity:1;stroke-width:2;stroke-linecap:round;stroke-linejoin:round;paint-order:stroke markers fill"
       d="m -116.48318,3.656202 6.7938,-10.160906 -6.7938,-10.160906 -6.79381,10.160906 z"
       id="path9"
       sodipodi:nodetypes="ccccc" />
    <path
       style="fill:#ffffff;fill-opacity:1;stroke-width:2;stroke-linecap:round;stroke-linejoin:round;paint-order:stroke markers fill"
       d="m -63.12058,8.231976 c 0.0421,-0.379258 0.63209,-3.329048 0.63209,-3.329048 l -23.2612,-0.04214 0.12642,3.919007 c 5.59034,-0.575694 7.91974,2.109546 7.7116,7.332334 0.27156,9.916911 0.40461,19.833823 -0.4214,29.750734 -0.11456,3.76445 -2.09293,5.96092 -7.20592,5.52033 v 2.02271 l 22.08129,-0.16856 0.16856,-2.06485 c -4.58542,0.002 -7.03288,-1.78333 -7.24806,-5.43604 -0.80526,-9.987147 -0.6228,-19.974295 -0.0843,-29.961442 -0.0131,-4.748468 1.80992,-7.86486 7.50092,-7.543035 z"
       id="path10"
       sodipodi:nodetypes="ccccccccccccc" />
    <path
       style="fill:#ffffff;fill-opacity:1;stroke-width:2;stroke-linecap:round;stroke-linejoin:round;paint-order:stroke markers fill"
       d="m -43.21143,58.960133 0.0298,2.80096 -20.76878,0.0298 -0.11919,-2.74136 c 3.38637,-0.29201 6.78375,-0.56709 6.13826,-7.06197 l 0.86413,-31.704414 c -0.1747,-3.451318 -1.42766,-5.423876 -4.38022,-5.065554 -4.33476,0.707595 -4.16553,-2.040603 -2.9301,-2.416524 5.37737,0.24899 10.79807,-0.0013 16.18994,-0.08646 l 20.26221,38.945172 -0.98331,-35.548271 c -0.33366,-4.564887 -3.38254,-5.180358 -6.25745,-6.048868 l 0.61085,-1.951728 17.29737,0.551252 -0.0298,1.400476 c -5.1425,-0.59273 -5.16229,2.763073 -5.24434,5.810489 l -0.68534,49.82122 -3.12873,0.11919 -23.39094,-41.358765 c -1.22319,-1.425474 -2.21768,-2.152131 -2.02622,0.744934 l 0.77473,27.622171 c 0.66383,4.91538 3.88154,6.03109 7.77713,6.13825 z"
       id="path11"
       sodipodi:nodetypes="cccccccscccccccccccccc" />
    <path
       style="fill:#ffffff;fill-opacity:1;stroke-width:2;stroke-linecap:round;stroke-linejoin:round;paint-order:stroke markers fill"
       d="M 0.25776,42.449539 H -1.72281 V 26.773513 l 1.85415,-0.294979 c 0.63958,5.188015 3.41269,5.153974 5.69436,5.299397 l 12.42578,0.600183 c 1.51372,-0.331532 2.3334,0.221261 2.10699,2.106993 l -0.75852,19.384336 -15.7603,2.35983 c -13.6756,-0.063 -17.69834,-6.46809 -20.43184,-12.446959 -2.73351,-5.978873 -1.1991,-18.563056 -0.39512,-20.137588 1.75075,-3.428696 2.54247,-13.966739 22.42827,-15.749868 4.05965,-0.377141 7.42617,0.947032 10.61924,2.69695 l 0.35881,10.968706 c 0,0 -4.30552,-7.083146 -6.4555,-8.322002 -2.14999,-1.238856 -9.27759,-2.40179 -13.58262,0.09239 -4.30503,2.494177 -8.43772,11.685375 -7.03735,21.364907 1.40037,9.679532 1.77863,12.655684 8.80723,15.886724 4.68739,2.66121 10.24143,1.77978 15.86565,0.96921 L 14.25839,38.210691 C 14.23739,37.687988 13.7328,37.787024 13.32011,37.76791 L 5.6597,37.345508 c -4.19612,0.558529 -5.60745,2.404174 -5.40194,5.104034 z"
       id="path12"
       sodipodi:nodetypes="ccccccccczsccczzzccccccc" />
    <path
       style="fill:#ffffff;fill-opacity:1;stroke-width:2;stroke-linecap:round;stroke-linejoin:round;paint-order:stroke markers fill"
       d="M 20.79334,8.006619 17.754,6.457156 C 25.48081,-8.993655 43.07906,-0.364643 47.3428,0.199706 65.7408,2.634864 66.66966,-4.311117 70.70394,-9.693023 71.22236,16.452608 51.1838,3.374158 33.6956,2.643091 l -0.35757,27.353993 28.75659,0.904766 c 3.46072,-0.168529 4.62036,-2.324102 5.03364,-4.420856 l 1.54946,0.05959 -0.0596,13.945173 -1.33515,0.0596 c -0.73892,-2.451732 -1.27616,-5.051071 -4.62433,-4.946365 l -29.4994,-0.715137 c 0.4188,6.999645 -0.17166,14.527958 1.31831,20.966508 1.40923,4.26794 4.15729,3.85354 6.60779,4.65924 l 0.0596,1.72824 -21.26448,0.004 0.11888,-1.91065 c 4.50226,-0.23535 6.0099,-2.0013 6.60448,-4.4696 C 27.15637,38.239269 27.58207,20.605414 25.7099,2.762662 Z"
       id="path13"
       sodipodi:nodetypes="ccscccccccccccccccccc" />
    <path
       style="fill:#ffffff;fill-opacity:1;stroke-width:2;stroke-linecap:round;stroke-linejoin:round;paint-order:stroke markers fill"
       d="m 74.38177,25.509317 c 0.35178,-1.010648 0.32867,-1.781438 -0.0936,-3.676756 1.1296,-1.660496 -5.85954,-8.579965 -13.30685,-5.846851 -6.17162,2.264945 -11.09699,8.151159 -9.43933,21.786305 0.87411,7.189988 -0.15836,15.071758 9.43933,19.342188 5.57911,2.48239 10.93841,1.03973 15.88673,-1.17991 l 0.84279,2.65481 c -5.64083,3.3962 -11.91043,3.91801 -18.33083,3.75045 -5.5061,-1.21368 -11.59124,-3.58319 -14.83323,-19.890014 -0.601,-7.709586 -0.75807,-17.27067 5.3939,-24.693955 3.97097,-4.791576 8.42994,-6.954466 20.52211,-5.8153 l 7.71159,3.118349 -0.80066,11.71488 z"
       id="path14"
       sodipodi:nodetypes="ccsssccccscccc" />
    <path
       id="path15"
       style="fill:#ffffff;fill-opacity:1;stroke-width:2;stroke-linecap:round;stroke-linejoin:round;paint-order:stroke markers fill"
       d="M 90.35257,10.212179 77.37405,44.177023 c -1.87557,2.96671 -3.11571,5.36535 -7.23828,5.85937 l 0.28516,1.26172 18.83594,-0.125 v -0.88476 c -1.83493,-1.34765 -6.32319,-0.24272 -5.1836,-4.3418 0.79311,-2.632956 1.62489,-5.022081 2.25977,-8.683592 0.11192,-0.320887 0.22859,-0.636581 0.60547,-0.712891 2.62585,0.01269 4.9583,-0.158466 8.6582,-0.05469 0.70693,0.01983 0.73782,0.0084 1.0293,0.365235 l 6.20117,17.513678 c 0.53277,1.62449 0.14727,3.0455 -1.93945,4.08789 l -0.043,1.72851 16.77343,0.12696 0.041,-1.8125 c -2.053,-0.73267 -3.89689,-0.54684 -6.61523,-4.21485 C 104.37822,41.148415 98.81338,26.049389 93.63963,10.255146 Z m 1.15039,10.308594 c 1.66583,3.726336 3.15684,7.732392 4.40625,12.125 -2.70828,-0.145704 -5.07312,0.481307 -8.125,-0.4375 0.49458,-4.119331 2.22296,-9.72119 3.71875,-11.6875 z" />
    <path
       style="fill:#ffffff;fill-opacity:1;stroke-width:2;stroke-linecap:round;stroke-linejoin:round;paint-order:stroke markers fill"
       d="m 99.54472,4.918202 0.38481,7.241103 c 0.0605,1.138618 1.43268,2.615572 2.18336,-0.405559 0.67802,-2.728748 2.22058,-3.905203 5.81578,-3.92547 l 6.62913,-0.04419 c 0.10963,12.23356 0.41083,24.6587 0.30936,36.681164 -0.0241,2.858913 -3.69758,4.366933 -6.67332,4.507803 l -0.0884,1.59099 21.69934,0.0442 0.22097,-1.76776 c -2.59273,-1.16584 -6.93767,0.24753 -7.77818,-4.817164 -1.9914,-11.999696 -1.05547,-24.951859 -0.0442,-36.504388 l 10.6508,-0.08839 c 3.62158,0.936924 3.98692,2.89089 3.66811,5.259107 0.42435,0.333548 0.77132,0.125408 1.14905,0.132582 0.33613,-2.585847 0.2357,-5.42115 0.35355,-8.131728 -0.21378,-1.55408 -2.32564,-2.245402 -5.74524,-2.342291 -12.19486,1.906178 -22.73014,0.434351 -30.62656,0.353553 -1.86497,-0.0409 -2.1551,0.609869 -2.10836,2.216438 z"
       id="path16"
       sodipodi:nodetypes="cssccsccccscccccccc" />
    <path
       style="fill:#ffffff;fill-opacity:1;stroke-width:2;stroke-linecap:round;stroke-linejoin:round;paint-order:stroke markers fill"
       d="m 125.38537,19.274567 -0.13258,-1.635184 21.52256,-0.265165 c 1.70155,-0.02096 2.64399,1.845532 -0.43167,2.349874 l -3.45742,0.566941 c -1.55173,0.254451 -2.89861,2.133414 -2.78423,5.126525 l 0.26517,6.938485 h 17.14733 L 157.07259,8.888937 c -0.1008,-5.352562 -4.39274,-4.575519 -7.33623,-5.61266 l 0.0442,-1.325826 22.71581,0.04419 -0.13258,1.502602 c -3.66978,0.04249 -6.71686,0.56683 -6.76171,5.656855 -0.14227,16.145084 -1.01701,32.305398 0.17677,48.436815 0.2373,3.20664 3.42148,3.39041 6.54029,3.74089 l 0.0991,1.62223 c -6.734,-1.31266 -14.7076,-0.53506 -21.95893,-0.7022 l -0.1433,-0.56557 c 0.50151,-0.99225 2.38397,-0.41001 4.11788,-0.77542 1.92606,-0.4059 2.19108,-1.94863 2.28515,-3.5409 l 1.19324,-20.196739 -17.85444,-0.265165 c 0.13258,5.435885 -0.55554,10.803544 0.39774,16.307654 0.33973,1.96156 2.00452,4.09514 6.41215,3.60294 0,0 0.87679,0.025 1.23367,1.12883 0.0489,0.15137 -0.092,0.44015 -0.51231,0.40827 -2.81817,-0.21379 -20.59401,-0.0709 -20.73007,0.2829 -1.60696,0.0229 -1.58249,-1.30127 -0.98222,-1.45731 2.84488,-0.73955 6.75496,-1.1778 6.97739,-4.27499 0.6701,-9.330716 0.75448,-19.121179 -0.0442,-29.521711 -0.1181,-1.537933 -1.62091,-3.663159 -7.42462,-4.110055 z"
       id="path17"
       sodipodi:nodetypes="ccssssccsccccssccccssccscsscsssc" />
    <path
       style="fill:#ffffff;fill-opacity:1;stroke-width:2;stroke-linecap:round;stroke-linejoin:round;paint-order:stroke markers fill"
       d="m 202.85776,23.826567 0.61871,-11.844038 c -5.55513,-1.554519 -11.0211,-4.478528 -18.82671,-1.502602 -6.29962,2.401759 -12.62772,10.860358 -13.03728,21.478368 -0.20338,5.272661 -1.00591,17.993888 7.77817,24.483578 3.54538,2.61933 9.56127,3.82281 17.16944,2.45277 2.6628,-0.4795 5.00269,-2.35953 7.35833,-3.86699 1.3879,-1.91561 1.92701,-3.21647 -0.8397,-1.74567 0,0 -9.69497,3.29405 -17.10314,-0.0663 -3.32646,-1.50888 -4.56399,-5.76629 -5.94411,-9.148194 -1.03056,-2.52531 -1.74567,-7.778175 -1.74567,-7.778175 4.44888,0.255868 9.67519,0.0056 13.34664,0.795495 1.46075,0.314261 2.31182,0.480412 2.96101,4.33103 l 1.4584,0.04419 c 0.0637,-4.557377 0.9273,-8.923087 0.15469,-14.473591 l -1.67938,0.817592 c -0.20745,2.153674 -0.78987,3.636571 -2.91682,3.86699 -4.21145,0.508866 -8.51332,0.791692 -13.19196,0.132584 0.42255,-4.345925 -0.21172,-8.83593 2.67375,-13.015184 2.32845,-3.372479 5.39934,-6.205877 10.54031,-5.678952 3.78344,0.387784 6.67074,1.002878 8.90669,4.939024 1.09075,1.920145 1.30169,3.723034 0.83812,5.490801 z"
       id="path18"
       sodipodi:nodetypes="ccssssccsscsccccccssscc" />
    <path
       id="path19"
       style="fill:#ffffff;fill-opacity:1;stroke-width:2;stroke-linecap:round;stroke-linejoin:round;paint-order:stroke markers fill"
       d="m 217.12405,-4.963602 c -7.17788,-0.01216 -14.02674,3.147399 -20.68359,8.171875 l 0.78125,2.09375 7.375,-4 c 1.61799,-1.185473 5.0004,-2.185122 4.9375,0.90625 l 0.21875,54.4375 c -0.27988,5.28517 -4.43777,5.93115 -8.09375,6.0625 l 0.57813,1.07812 c 8.1464,0.2171 14.39716,0.38185 21.35937,0.48438 l 0.53125,-1.46875 c -2.29203,-0.33222 -6.82758,0.5263 -7.46875,-5.5625 -0.69922,-6.89539 -0.33885,-14.143999 -0.40625,-21.25 5.53628,11.84249 11.26129,23.59285 20.3125,33.71875 4.76101,5.83648 9.40918,3.20923 14.09375,3.3125 3.14884,-2.08547 6.59836,-3.34408 9.4375,-6.28125 0.20263,-0.82877 0.6193,-1.82877 -0.78125,-1.375 -3.72048,1.75053 -7.19283,4.28089 -12.59375,0.75 -9.82692,-6.68357 -17.72552,-16.50075 -23.78125,-29.3125 -0.49614,-1.197757 -0.0942,-1.7303 1,-1.75 10.18655,-2.333846 15.5226,-8.669386 16.28125,-18.78125 -0.37971,-15.583518 -9.36299,-19.434948 -20,-21.03125 -1.0392,-0.135009 -2.07224,-0.201388 -3.09766,-0.203125 z m 1.41016,4.53125 c 7.1201,1.805277 10.87625,5.219224 12.03125,10.203125 2.39231,10.322953 -0.8079,14.321471 -3.34375,16.65625 -2.82251,2.5987 -5.52625,3.802867 -9.90625,4.40625 -0.65663,0.312132 -0.88491,-0.187366 -0.75,-1.375 l 0.9375,-27.6875 c 0.0251,-2.189256 0.006,-2.096669 1.03125,-2.203125 z" />
    <text
       xml:space="preserve"
       style="font-size:12px;line-height:1.25;font-family:'Noto Sans Black';-inkscape-font-specification:'Noto Sans Black, '"
       x="69.541061"
       y="109.43446"
       id="text1"><tspan
         sodipodi:role="line"
         id="tspan1"
         x="69.541061"
         y="109.43446" /></text>
    <path
       style="font-weight:bold;font-size:28px;line-height:1.25;font-family:Marcellus;-inkscape-font-specification:Marcellus;letter-spacing:2.5px;fill:#ffffff"
       d="m 12.269932,88.071625 v -0.05469 q 0.02734,-0.06836 0.04101,-0.205078 0.01367,-0.136719 0.01367,-0.246094 0,-0.423828 -0.123047,-0.929687 -0.109375,-0.519531 -0.4375,-1.285156 l -1.654296,-3.71875 q -0.7656255,-0.02734 -2.0371098,-0.02734 -1.2714844,0 -2.7480469,0 -1.0800781,0 -2.0917969,0 -0.9980469,0 -1.8046875,0.02734 l -1.57226561,3.609375 q -0.20507812,0.505859 -0.4375,1.107422 -0.23242187,0.601562 -0.23242187,1.216796 0,0.177735 0.0273438,0.300782 0.0273438,0.109375 0.0546875,0.15039 v 0.05469 H -3.5210838 v -0.05469 q 0.2460937,-0.259765 0.6152343,-0.916015 0.3691407,-0.669922 0.8066407,-1.667969 L 5.7347755,68.056 h 1.09375 l 7.4238285,16.707031 q 0.259765,0.587891 0.533203,1.148438 0.287109,0.546875 0.533203,0.984375 0.246094,0.4375 0.4375,0.738281 0.191406,0.300781 0.259766,0.382812 v 0.05469 z M 3.4105568,80.429047 q 0.7929687,0 1.6269531,0 0.8339844,-0.01367 1.6269531,-0.01367 0.8066407,-0.01367 1.5449219,-0.01367 0.7382813,-0.01367 1.3398438,-0.02734 L 5.7074318,71.692719 1.9339943,80.429047 Z M 23.191807,69.641937 q -0.02734,1.53125 -0.05469,2.966797 -0.01367,0.615235 -0.02734,1.257813 0,0.642578 -0.01367,1.271484 0,0.615234 -0.01367,1.189453 0,0.560547 0,0.998047 0,0.916016 0.01367,2.214844 0.01367,1.298828 0.02734,2.666015 0.02734,1.367188 0.06836,2.625 0.04101,1.257813 0.0957,2.091797 0.191406,0.02734 0.505859,0.06836 0.328125,0.02734 0.683594,0.05469 0.355469,0.01367 0.697266,0.02734 0.341797,0.01367 0.574218,0.01367 0.957032,0 1.955079,-0.123047 1.011718,-0.136719 1.941406,-0.492188 0.943359,-0.355468 1.763672,-0.970703 0.833984,-0.628906 1.449218,-1.613281 0.628907,-0.984375 0.984375,-2.365234 0.355469,-1.394532 0.355469,-3.28125 0,-2.091797 -0.505859,-3.71875 -0.50586,-1.640625 -1.490235,-2.761719 -0.970703,-1.121094 -2.419921,-1.695313 -1.435547,-0.58789 -3.308594,-0.58789 -0.369141,0 -0.833985,0.02734 -0.464843,0.01367 -0.929687,0.04102 -0.451172,0.01367 -0.861328,0.05469 -0.396485,0.02734 -0.65625,0.04102 z m -2.994141,-1.230468 q 0.314453,0.01367 0.587891,0.02734 0.232422,0.01367 0.478515,0.02734 0.246094,0 0.396485,0 0.259765,0 0.861328,-0.02734 0.615234,-0.02734 1.394531,-0.05469 0.779297,-0.02734 1.613281,-0.05469 0.847657,-0.02734 1.585938,-0.02734 1.982422,0 3.773437,0.492187 1.791016,0.492188 3.144532,1.613281 1.353515,1.121094 2.146484,2.939453 0.792969,1.81836 0.792969,4.470704 0,1.90039 -0.423828,3.417968 -0.410157,1.517578 -1.16211,2.679688 -0.751953,1.162109 -1.804687,1.996094 -1.039063,0.820312 -2.310547,1.353515 -1.257813,0.533203 -2.693359,0.779297 -1.435547,0.246094 -2.966797,0.246094 -0.546875,0 -1.326172,-0.04102 -0.765625,-0.02734 -1.544922,-0.06836 -0.779297,-0.04102 -1.476563,-0.08203 -0.683593,-0.02734 -1.066406,-0.02734 v -0.05469 q 0.08203,-0.287109 0.150391,-0.710937 0.08203,-0.423828 0.136719,-1.052735 0.05469,-0.628906 0.08203,-1.490234 0.02734,-0.875 0.02734,-2.037109 v -8.900391 q 0,-1.162109 -0.02734,-2.037109 -0.02734,-0.888672 -0.08203,-1.517578 -0.05469,-0.642579 -0.136719,-1.080079 -0.06836,-0.4375 -0.150391,-0.724609 z m 23.71875,0.05469 v 0.05469 q -0.02734,0.06836 -0.04102,0.205078 -0.01367,0.136718 -0.01367,0.246093 0,0.423829 0.109375,0.94336 0.123047,0.505859 0.451172,1.271484 l 6.05664,13.658203 5.851563,-13.548828 q 0.205078,-0.505859 0.4375,-1.107422 0.232422,-0.601562 0.232422,-1.216797 0,-0.164062 -0.02734,-0.273437 -0.02734,-0.123047 -0.05469,-0.177734 v -0.05469 h 2.802735 v 0.05469 q -0.259766,0.259765 -0.628907,0.929687 -0.36914,0.669922 -0.80664,1.654297 l -7.833985,17.390625 h -1.09375 L 41.933994,71.77475 q -0.259765,-0.587891 -0.546875,-1.134766 -0.273437,-0.546875 -0.519531,-0.984375 -0.246094,-0.451172 -0.4375,-0.751953 -0.191406,-0.300781 -0.259766,-0.382812 v -0.05469 z m 19.699219,0 q 1.708984,0 3.390625,-0.01367 1.695312,-0.01367 3.103516,-0.02734 1.408203,-0.02734 2.40625,-0.06836 0.998046,-0.04102 1.353515,-0.109375 l -0.669922,1.818359 q -0.451172,-0.123046 -1.052734,-0.21875 -0.519531,-0.08203 -1.271484,-0.15039 -0.738282,-0.08203 -1.708985,-0.08203 -0.328125,0 -0.792969,0.02734 -0.451171,0.01367 -0.875,0.04102 -0.492187,0.02734 -0.998046,0.05469 v 7.464844 q 1.408203,-0.01367 2.542968,-0.08203 1.134766,-0.06836 1.927735,-0.136719 0.929687,-0.08203 1.640625,-0.191406 l -0.423828,1.982422 q -0.94336,-0.123047 -1.927735,-0.232422 -0.847656,-0.0957 -1.845703,-0.164063 -0.998047,-0.08203 -1.914062,-0.08203 V 86.8685 q 1.613281,0 2.966796,-0.136719 1.353516,-0.136719 2.365235,-0.314453 1.175781,-0.191406 2.146484,-0.451172 L 73.582432,88.181 q -0.164063,-0.01367 -0.492188,-0.02734 -0.328125,-0.01367 -0.738281,-0.02734 -0.396484,-0.01367 -0.847656,-0.02734 -0.4375,0 -0.833985,-0.01367 -0.396484,0 -0.710937,-0.01367 -0.300781,0 -0.4375,0 h -5.90625 v -0.05469 q 0.08203,-0.287109 0.150391,-0.710937 0.08203,-0.423828 0.136718,-1.052735 0.05469,-0.628906 0.08203,-1.490234 0.02734,-0.875 0.02734,-2.037109 v -8.900391 q 0,-1.162109 -0.02734,-2.023437 -0.02734,-0.875 -0.08203,-1.503907 -0.05469,-0.642578 -0.136718,-1.066406 -0.06836,-0.423828 -0.150391,-0.710937 v -0.05469 z m 16.992187,0 14.082032,14.984375 v -9.625 q 0,-1.162109 -0.02734,-2.023437 -0.02734,-0.875 -0.08203,-1.503907 -0.05469,-0.642578 -0.136719,-1.066406 -0.06836,-0.423828 -0.150391,-0.710937 v -0.05469 h 2.433594 v 0.05469 q -0.08203,0.287109 -0.150391,0.710937 -0.06836,0.423828 -0.123046,1.066406 -0.05469,0.628907 -0.08203,1.503907 -0.02734,0.861328 -0.02734,2.023437 V 88.345062 H 95.865635 L 81.783604,73.374359 v 9.351563 q 0,1.162109 0.02734,2.037109 0.02734,0.861328 0.08203,1.490234 0.05469,0.628907 0.123047,1.052735 0.06836,0.423828 0.15039,0.710937 v 0.05469 h -2.433594 v -0.05469 q 0.08203,-0.287109 0.150391,-0.710937 0.08203,-0.423828 0.136719,-1.052735 0.05469,-0.628906 0.08203,-1.490234 0.02734,-0.875 0.02734,-2.037109 v -8.900391 q 0,-1.162109 -0.02734,-2.023437 -0.02734,-0.875 -0.08203,-1.503907 -0.05469,-0.642578 -0.136719,-1.066406 -0.06836,-0.423828 -0.150391,-0.710937 v -0.05469 z m 27.574218,1.203125 q -1.61328,0 -2.91211,0.150391 -1.29883,0.136718 -2.24219,0.300781 -1.09375,0.205078 -1.95507,0.451172 l 0.39648,-2.214844 q 0.16406,0.01367 0.49219,0.02734 0.32812,0.01367 0.72461,0.02734 0.41015,0.01367 0.84765,0.02734 0.45118,0 0.84766,0.01367 0.39648,0 0.69727,0.01367 0.31445,0 0.45117,0 h 7.80664 q 0.13672,0 0.4375,0 0.31445,-0.01367 0.71094,-0.01367 0.39648,-0.01367 0.83398,-0.01367 0.45117,-0.01367 0.84766,-0.02734 0.41015,-0.01367 0.73828,-0.02734 0.32812,-0.01367 0.49218,-0.02734 l 0.39649,2.214844 q -0.875,-0.246094 -1.96875,-0.451172 -0.94336,-0.164063 -2.24219,-0.300781 -1.29883,-0.150391 -2.91211,-0.150391 v 13.056641 q 0,1.162109 0.0273,2.037109 0.041,0.861328 0.082,1.490234 0.0547,0.628907 0.12304,1.052735 0.082,0.423828 0.16407,0.710937 v 0.05469 h -3.26758 v -0.05469 q 0.082,-0.287109 0.15039,-0.710937 0.0684,-0.423828 0.12305,-1.052735 0.0547,-0.628906 0.082,-1.490234 0.0273,-0.875 0.0273,-2.037109 z m 28.09375,4.15625 q 0,-1.162109 -0.0273,-2.023437 -0.0273,-0.875 -0.082,-1.503907 -0.0547,-0.642578 -0.12305,-1.066406 -0.0684,-0.423828 -0.15039,-0.710937 v -0.05469 h 2.43359 v 0.05469 q -0.082,0.287109 -0.16406,0.710937 -0.0684,0.423828 -0.12305,1.066406 -0.041,0.628907 -0.082,1.503907 -0.0273,0.861328 -0.0273,2.023437 v 7.382813 q 0,1.955078 -0.56055,3.335937 -0.56055,1.380859 -1.55859,2.269531 -0.99805,0.875 -2.39258,1.271485 -1.39453,0.410156 -3.04883,0.410156 -1.6543,0 -3.08984,-0.382813 -1.42188,-0.382812 -2.48828,-1.230468 -1.05274,-0.861328 -1.6543,-2.214844 -0.60156,-1.367188 -0.60156,-3.322266 v -7.519531 q 0,-1.162109 -0.0273,-2.023437 -0.0273,-0.875 -0.082,-1.503907 -0.0547,-0.642578 -0.13672,-1.066406 -0.0684,-0.423828 -0.15039,-0.710937 v -0.05469 h 3.28125 v 0.05469 q -0.082,0.287109 -0.16406,0.710937 -0.0684,0.423828 -0.12305,1.066406 -0.0547,0.628907 -0.082,1.503907 -0.0273,0.861328 -0.0273,2.023437 v 7.669922 q 0,1.626953 0.47851,2.693359 0.49219,1.052735 1.28516,1.681641 0.79297,0.615234 1.80469,0.861328 1.01172,0.246094 2.06445,0.246094 1.05273,0 2.06445,-0.246094 1.01172,-0.246094 1.79102,-0.861328 0.79297,-0.628906 1.27148,-1.681641 0.49219,-1.066406 0.49219,-2.693359 z m 11.23633,8.900391 q 0,1.162109 0.0273,2.037109 0.041,0.861328 0.082,1.490234 0.0547,0.628907 0.12305,1.052735 0.082,0.423828 0.16406,0.710937 v 0.05469 h -3.28125 v -0.05469 q 0.082,-0.287109 0.15039,-0.710937 0.082,-0.423828 0.12305,-1.052735 0.0547,-0.628906 0.082,-1.490234 0.041,-0.861328 0.041,-2.037109 v -8.900391 q 0,-1.162109 -0.041,-2.023437 -0.0273,-0.875 -0.082,-1.503907 -0.041,-0.628906 -0.12305,-1.052734 -0.0684,-0.4375 -0.15039,-0.724609 v -0.05469 l 0.57422,0.05469 q 0.25977,0.02734 0.57422,0.04102 0.32813,0 0.66992,0 0.53321,0 1.43555,-0.123047 0.91602,-0.136718 2.32422,-0.136718 1.3125,0 2.41992,0.355468 1.12109,0.355469 1.94141,1.039063 0.82031,0.683594 1.27148,1.68164 0.46484,0.984375 0.46484,2.242188 0,0.984375 -0.25976,1.832031 -0.24609,0.833985 -0.71094,1.517578 -0.45117,0.683594 -1.09375,1.216797 -0.64258,0.519531 -1.43555,0.875 l 4.79883,6.740235 q 0.35547,0.505859 0.65625,0.875 0.31446,0.36914 0.58789,0.642578 0.28711,0.259765 0.54688,0.4375 0.25976,0.164062 0.5332,0.259765 v 0.05469 h -3.95117 q -0.041,-0.259766 -0.27344,-0.683594 -0.21875,-0.4375 -0.51953,-0.861328 l -4.83984,-6.822266 q -0.31446,0.02734 -0.62891,0.05469 -0.31445,0.01367 -0.64258,0.01367 -0.38281,0 -0.77929,-0.02734 -0.38282,-0.02734 -0.7793,-0.0957 z m 0,-4.142578 q 0.36914,0.08203 0.75195,0.123046 0.38281,0.02734 0.73828,0.02734 1.02539,0 1.87305,-0.300781 0.84766,-0.314453 1.43555,-0.943359 0.60156,-0.628907 0.92968,-1.558594 0.32813,-0.94336 0.32813,-2.201172 0,-1.025391 -0.23242,-1.859375 -0.23242,-0.833984 -0.69727,-1.408203 -0.45117,-0.587891 -1.14844,-0.902344 -0.69726,-0.328125 -1.62695,-0.328125 -0.94336,0 -1.5039,0.0957 -0.56055,0.0957 -0.84766,0.205078 z m 16.1582,-10.117188 q 1.70899,0 3.39063,-0.01367 1.69531,-0.01367 3.10351,-0.02734 1.40821,-0.02734 2.40625,-0.06836 0.99805,-0.04102 1.35352,-0.109375 l -0.66992,1.818359 q -0.45118,-0.123046 -1.05274,-0.21875 -0.51953,-0.08203 -1.27148,-0.15039 -0.73828,-0.08203 -1.70899,-0.08203 -0.32812,0 -0.79297,0.02734 -0.45117,0.01367 -0.875,0.04102 -0.49218,0.02734 -0.99804,0.05469 v 7.464844 q 1.4082,-0.01367 2.54297,-0.08203 1.13476,-0.06836 1.92773,-0.136719 0.92969,-0.08203 1.64063,-0.191406 l -0.42383,1.982422 q -0.94336,-0.123047 -1.92774,-0.232422 -0.84765,-0.0957 -1.8457,-0.164063 -0.99805,-0.08203 -1.91406,-0.08203 V 86.8685 q 1.61328,0 2.96679,-0.136719 1.35352,-0.136719 2.36524,-0.314453 1.17578,-0.191406 2.14648,-0.451172 L 173.63712,88.181 q -0.16406,-0.01367 -0.49219,-0.02734 -0.32812,-0.01367 -0.73828,-0.02734 -0.39648,-0.01367 -0.84766,-0.02734 -0.4375,0 -0.83398,-0.01367 -0.39648,0 -0.71094,-0.01367 -0.30078,0 -0.4375,0 h -5.90625 v -0.05469 q 0.082,-0.287109 0.15039,-0.710937 0.082,-0.423828 0.13672,-1.052735 0.0547,-0.628906 0.082,-1.490234 0.0274,-0.875 0.0274,-2.037109 v -8.900391 q 0,-1.162109 -0.0274,-2.023437 -0.0273,-0.875 -0.082,-1.503907 -0.0547,-0.642578 -0.13672,-1.066406 -0.0684,-0.423828 -0.15039,-0.710937 v -0.05469 z m 24.40235,3.117188 h -0.30079 q -0.10937,-0.314454 -0.35546,-0.710938 -0.23243,-0.396484 -0.62891,-0.738281 -0.38281,-0.355469 -0.94336,-0.587891 -0.54687,-0.232422 -1.29883,-0.232422 -0.66992,0 -1.18945,0.205078 -0.51953,0.205079 -0.875,0.574219 -0.3418,0.369141 -0.51953,0.875 -0.17774,0.50586 -0.17774,1.121094 0,0.984375 0.54688,1.886719 0.56055,0.888672 1.39453,1.763672 0.83398,0.875 1.80469,1.75 0.9707,0.875 1.80468,1.818359 0.83399,0.943359 1.38086,1.982422 0.56055,1.02539 0.56055,2.214844 0,0.888671 -0.31445,1.791015 -0.30078,0.888672 -0.94336,1.59961 -0.64258,0.710937 -1.6543,1.162109 -1.01172,0.4375 -2.40625,0.4375 -0.7793,0 -1.49023,-0.150391 -0.69727,-0.136718 -1.29883,-0.341797 -0.58789,-0.21875 -1.06641,-0.464843 -0.46484,-0.246094 -0.76562,-0.451172 l 0.31445,-3.021485 h 0.3418 q 0.15039,0.642579 0.49219,1.230469 0.34179,0.574219 0.83398,1.025391 0.50586,0.4375 1.14844,0.710937 0.64258,0.259766 1.4082,0.259766 0.69727,0 1.24414,-0.205078 0.56055,-0.21875 0.95703,-0.587891 0.39649,-0.382812 0.60156,-0.902344 0.21875,-0.519531 0.21875,-1.134765 0,-0.861328 -0.31445,-1.585938 -0.31445,-0.738281 -0.83398,-1.394531 -0.50586,-0.65625 -1.16211,-1.271484 -0.64258,-0.615235 -1.32617,-1.230469 -0.6836,-0.628906 -1.33985,-1.285156 -0.64258,-0.65625 -1.16211,-1.394532 -0.50586,-0.751953 -0.82031,-1.599609 -0.31445,-0.861328 -0.31445,-1.886719 0,-1.080078 0.41015,-1.941406 0.42383,-0.875 1.10743,-1.490234 0.69726,-0.615235 1.57226,-0.94336 0.875,-0.328125 1.80469,-0.328125 0.68359,0 1.25781,0.109375 0.57422,0.109375 1.02539,0.259766 0.46485,0.150391 0.80664,0.300781 0.3418,0.150391 0.56055,0.246094 z"
       id="text2"
       aria-label="ADVENTURES" />
    <path
       style="fill:#ffffff;fill-opacity:1;stroke-width:2;stroke-linecap:round;stroke-linejoin:round;paint-order:stroke markers fill"
       d="m 197.7094,75.86943 c -0.47,0.136918 -1.53131,0.475872 -1.67759,1.76148 -0.17484,1.536677 1.64038,1.289141 2.60027,1.67759 9.68483,-0.671614 18.89493,-0.767184 29.02241,-1.92923 2.19558,-0.606981 -0.40377,-0.649852 -1.76147,-0.8388 -8.54706,-0.971457 -18.31535,-0.865359 -28.18362,-0.67104 z"
       id="path2"
       sodipodi:nodetypes="cscccc" />
    <path
       style="fill:#ffffff;fill-opacity:1;stroke-width:2;stroke-linecap:round;stroke-linejoin:round;paint-order:stroke markers fill"
       d="m -8.17358,75.36615 c 1.2682608,0.0068 2.0538606,0.900553 1.97117,2.39058 -0.056195,1.012599 -0.8851652,0.955946 -1.4679,1.0485 l -53.97665,-0.29358 c -9.510349,-0.339532 -19.793285,-0.09963 -28.099737,-1.34208 6.214712,-0.650756 12.454336,-1.235078 18.998776,-1.00656 z"
       id="path3"
       sodipodi:nodetypes="csccccc" />
  </g>
</svg>
